<?xml version="1.0" encoding="UTF-8" standalone="no"?>
<!-- Generator: Adobe Illustrator 18.0.0, SVG Export Plug-In . SVG Version: 6.00 Build 0)  -->

<svg
   xmlns:dc="http://purl.org/dc/elements/1.1/"
   xmlns:cc="http://creativecommons.org/ns#"
   xmlns:rdf="http://www.w3.org/1999/02/22-rdf-syntax-ns#"
   xmlns:svg="http://www.w3.org/2000/svg"
   xmlns="http://www.w3.org/2000/svg"
   xmlns:sodipodi="http://sodipodi.sourceforge.net/DTD/sodipodi-0.dtd"
   xmlns:inkscape="http://www.inkscape.org/namespaces/inkscape"
   version="1.1"
   x="0px"
   y="0px"
   viewBox="0 0 600 600"
   enable-background="new 0 0 600 600"
   xml:space="preserve"
   id="svg3088"
   inkscape:version="0.48.5 r10040"
   width="100%"
   height="100%"
   sodipodi:docname="symfoniacs-spb-logo.svg"><metadata
     id="metadata3135"><rdf:RDF><cc:Work
         rdf:about=""><dc:format>image/svg+xml</dc:format><dc:type
           rdf:resource="http://purl.org/dc/dcmitype/StillImage" /><dc:title></dc:title></cc:Work></rdf:RDF></metadata><defs
     id="defs3133" /><sodipodi:namedview
     pagecolor="#ffffff"
     bordercolor="#666666"
     borderopacity="1"
     objecttolerance="10"
     gridtolerance="10"
     guidetolerance="10"
     inkscape:pageopacity="0"
     inkscape:pageshadow="2"
     inkscape:window-width="1920"
     inkscape:window-height="1027"
     id="namedview3131"
     showgrid="false"
     inkscape:zoom="1.4033333"
     inkscape:cx="217.69596"
     inkscape:cy="300"
     inkscape:window-x="0"
     inkscape:window-y="0"
     inkscape:window-maximized="1"
     inkscape:current-layer="svg3088" /><g
     id="cdr_x5F_layer1" /><g
     id="cdr_x5F_layer2" /><g
     id="cdr_x5F_layer3" /><g
     id="cdr_x5F_layer4" /><g
     id="g3155"
     transform="matrix(1.21,0,0,1.21,-66.4485,-13.026789)"><g
       id="g3095"><path
         clip-rule="evenodd"
         d="m 421.7,275.6 1.6,2.1 -12.5,15.9 0.3,1 0.4,0.4 12.5,-15.7 c 0.5,0.3 1.6,1.4 1.9,1.4 2,0 0.9,-1.7 1,-3.7 l 0.8,-3.3 c -3.5,2.4 -1.5,2.2 -6,1.9 z"
         id="path3097"
         inkscape:connector-curvature="0"
         style="fill-rule:evenodd" /><path
         clip-rule="evenodd"
         d="m 471.3,316.3 -2.4,1 0.6,0.2 2.8,0.2 c 0,0 -0.5,0.9 -0.4,0.9 v 1.8 1.9 1.8 1.9 1.9 1.8 1.9 l -0.1,1.9 0.5,2.3 1.4,-0.4 0,-17.8 3.2,-0.7 c -1.9,-1 -3.8,-0.3 -4.5,-4.7 l -1.1,4.1 z"
         id="path3099"
         inkscape:connector-curvature="0"
         style="fill-rule:evenodd" /><path
         clip-rule="evenodd"
         d="m 383.3,406.9 h 55 l 12.5,-4.3 -33.8,-3.4 0,-1.2 56.1,-3.2 -21,-3.3 0.1,-0.8 c 9.9,0 9.6,-0.7 16.1,-0.7 5.3,0 9.7,0.5 15,0.5 2.7,0 29.1,0.1 32.3,-2.3 l -27.3,-1.3 0,-1 16.7,-1.6 3.2,0.3 27.3,-0.4 0,-0.6 -31.5,-1.3 0.1,-0.5 12,-2.8 -36.5,-3 c -1,-2.1 -0.6,-7.3 1,-7.9 4,-1.6 6.4,-1.8 10.1,-2.5 1.1,-0.2 19.4,-2.8 19.9,-3.1 l 17.9,-2 0.7,0.2 0.3,-17.6 h -3 l -0.3,-21.4 0.6,-0.1 3.2,-0.3 c 0,-0.2 0,-0.3 0,-0.5 -2.6,-0.6 -4.2,-1.9 -4.9,-3.9 -0.3,0 -0.3,0.5 -0.2,0.8 -0.2,2.1 -3.6,3 -4.4,3.4 l 3.4,0.4 0.1,21.6 h -44.7 v -6.5 c -6.7,-0.2 -11.2,-0.1 -16.3,-0.7 -8.5,-0.9 -7.5,-2.6 -15.2,2.5 l -54.9,-61.7 c 6.1,-9.2 -5.7,3.7 -1.1,-5.8 l -4.1,1 -26.9,-31.5 c 1.8,-3.6 2.8,-7.5 5.2,-9.2 1,-0.7 2,-0.4 3.6,-0.6 -0.1,-0.1 -0.3,-0.3 -0.4,-0.4 -1.5,-1.1 -1.3,-2.6 -0.8,-4.8 0,-0.2 -0.1,-0.2 -0.3,-0.4 -0.6,1 -3.8,4.1 -6.5,4 l -0.6,0 2.8,1.8 -7.5,13 -34.5,0.1 c 0.1,-1 3.6,-8.2 4.6,-10.3 1.5,-3.2 2,-4 2.4,-4.5 0.6,-0.7 4.3,-0.9 4.4,-1.3 -0.9,-0.4 -2.2,-2.1 -2,-3.3 -0.2,-0.1 -0.2,-0.1 -0.4,-0.2 -1.2,1.4 -2.7,2.5 -5.1,2.2 l -1.4,0.4 2,1.1 c -2.4,4.9 -4,9.4 -5.9,13.2 -3.5,7 -2.8,-0.6 -7.8,6.8 l 70.7,89.8 -0.3,0.5 -27.4,-3.2 0.1,-0.6 h -1.4 l -7.9,1 -3.5,-3.1 -0.5,0.3 v 1.4 l -0.2,0.5 -3.3,-0.5 0,-2.5 -3.8,-4.6 -0.8,0.4 c 0,-9.4 -0.4,-8.1 -3.2,-10.6 -0.2,-0.6 -0.1,-1.2 -0.3,-1.8 0.7,-0.8 0.3,-1.4 -0.7,-1.9 l -0.1,-1.4 0.6,0 -0.1,-0.4 -0.4,-0.1 -0.1,-0.4 -0.4,0 -0.1,0.4 -0.4,0.1 0.1,0.4 0.4,0.1 c 0.4,0.1 0,0.8 0,1.2 -0.1,0.4 -0.6,0.8 -0.9,1 -0.5,0.4 -0.7,0.5 -0.6,1 0.5,1.4 0.3,2.3 0,2.5 -1.2,0.7 -2.6,3.5 -2.4,5.6 0,2.5 0.4,4.2 -0.2,4.9 -1.1,1.1 -2.7,1 -4.2,5.5 l -2.1,0.1 -6.4,-1.9 0.2,-0.7 h -5.1 l 0.1,-14 -4.5,-3.1 c 0.5,-1.4 -0.5,-3.8 -0.2,-5.8 0.6,-0.9 0.7,-1.9 -0.4,-3 l -1.4,-0.2 0,-0.4 0.5,0 -0.1,-0.5 -0.4,0 -0.1,-0.4 -0.4,0 0,0.4 -0.4,0 c -0.2,0 0,0.7 -0.1,0.9 -0.6,0.1 -1.7,1.4 -1.8,2.3 0.5,0.7 0.5,0.7 0.8,1.3 0.6,1.2 0.5,4.3 -1.1,6 -1,1.1 -3.5,1.2 -3.8,1.5 l -0.5,0.4 0.8,0 0.2,4.1 0.3,10.2 -13.8,0.2 c -0.2,-0.6 -2.9,-15.1 0.3,-16.3 l -1.5,-0.8 -0.4,-11.4 0.5,0.2 1.7,-2 c -3.2,-1.4 -1.7,1.9 -3,-2.7 -0.6,-2.2 -1.5,-3.2 -2.5,-4.5 -1.9,-2.3 -0.9,-5.3 -0.1,-8.2 0,-0.3 -0.8,-0.3 -0.9,-0.7 -0.1,-1.4 -0.6,-3.7 -1.6,-3.7 -0.4,0 -0.3,-20.7 -0.3,-23.3 v -1.4 L 273,229.2 c 0,-0.2 0.5,0 0.5,-0.2 -1.1,-2.9 1.3,-5.8 3.7,-6.7 1.1,-0.4 0,-2 -0.1,-2.9 0,-0.6 -3.1,2.5 -3.6,2.2 -0.7,-0.5 0.8,-2 0.6,-2 -0.6,-0.1 -1,-1.8 -1.5,-1.8 -0.1,0.2 -0.2,0.5 -0.3,0.8 -0.1,0.1 -0.7,1.2 -0.8,2.2 0,0.4 -0.9,-0.5 -1,-0.2 -0.2,0.4 -0.3,0.4 -0.2,0.9 0.1,0.6 1.4,1.4 1.4,1.9 0,0.8 -0.2,1.5 -0.1,2.5 0.1,1.1 -0.3,2 -0.4,2.8 l 0.5,1 c -0.8,8.2 0,50.5 -2,51.3 -0.8,0.3 -0.7,1.5 -1.2,3.4 -0.1,0.5 -0.9,0.6 -1.2,1.1 0.6,0.4 1,0.4 1.2,0.9 0.7,1.6 0.4,3.9 -0.9,6.1 -3.3,3.6 -2.4,2.9 -3.1,7.5 h -2.3 c 1.5,2.8 2.2,2.3 2.3,2.9 0.1,0.6 -0.3,2.4 -0.2,5 0,1.4 0,2.6 0,4 0.1,3.3 -0.4,1 -2.1,1.9 0.3,1.3 1.1,1.3 1.3,2 0.5,2.1 -0.4,2.6 -0.5,6.5 0.2,0.2 -0.6,4.3 -1.8,6.2 -0.4,0.6 -1,1 -1.4,1.2 0.8,0.5 1.3,-0.1 1.7,0.6 0.4,0.7 0.5,2.7 0.2,5 -0.2,1.1 -3.3,4.4 -5.1,4.4 h -2.3 c -1.4,0 -1.6,-0.8 -1.8,-1.9 -2.6,0 -7.1,0.3 -9.3,-0.1 -2.1,-0.4 -2.5,-3 -5.6,-1.8 -3,1.2 -1.8,3.1 -5.9,2.8 -3,-0.2 -4.3,-0.7 -6.1,-1.7 -5.8,-3.4 -7.4,0.9 -12.8,1.1 -1.8,0.1 -3,0.3 -5,0.4 -2.3,0.1 -1.2,-0.3 -2.7,-0.1 0,0 -1.1,0.2 -1.1,0.2 -0.1,0 -0.4,0.1 -0.4,0.1 0,0 -0.2,0.1 -0.2,0.1 -0.1,0 -0.3,0.2 -0.4,0.1 l -0.5,-0.4 c 1.8,-2.1 12.8,-23.2 14.2,-26.5 1.3,-3.2 5.3,-9.6 7.6,-13.7 2.6,-4.7 4.5,-8.4 7.6,-14 5.1,-9.2 8.8,-16.8 14.3,-26.5 3.2,-5.7 5.3,-9.8 7.2,-13.5 1.7,-3.3 1.3,-1.9 0.8,-7.3 -0.2,-0.8 0.2,-2 -0.2,-2.2 -1,-0.5 -1.3,-0.1 -1.4,0.7 l -3.8,0 -6.1,-13.3 c 0.8,-0.3 1.6,-0.2 2.4,-0.5 -2.3,-0.2 -4.2,-0.9 -5.7,-2.5 0,1.1 0.3,1.8 -0.6,2.8 l -0.8,0.8 c 0.7,-0.2 2.4,-0.7 2.7,-0.1 1.7,3.3 5.4,9.9 6.7,12.9 H 214 l -10.3,-14.1 3,-1.4 c 0.1,-0.1 0.2,-0.3 0.4,-0.4 -3.3,0.8 -5.6,-0.2 -7.4,-2.1 l -0.3,0.2 c 1.2,1.8 0.5,3.4 -1.4,5.3 l 3.9,-0.9 5.4,7.3 -38.8,60 -10.4,-6.7 2.3,-3.6 c -0.3,0 -0.7,0 -1,0 -1.3,1.7 -2.9,2.6 -4.9,2.7 -0.1,0.1 -0.1,0.2 -0.2,0.3 1.2,1.3 1.4,2.6 0.4,4 l 0.5,0.5 1.7,-2.5 10,7.5 -27.7,41.2 -0.6,0 c 0.1,-6.2 0.2,-12.7 0.3,-18.9 0.7,-0.9 2.3,-1.1 3.8,-1.4 -3,-0.6 -4.4,-3.2 -4.1,-4.4 -0.2,0 -0.5,-0.1 -0.7,-0.1 0.2,2.8 -0.3,4.1 -3.5,4.2 2.7,0.7 2.4,0.4 2.7,1.1 0.2,0.3 0,1.3 0,2.7 l 0,5.9 0.1,11.9 -49.9,1.7 0,-21.4 c 1.2,-0.1 2.2,0 3.5,-0.1 -0.7,-0.7 -2.9,-0.3 -3.5,-3.3 l -0.9,0.1 c 0,1.6 -2.2,2.4 -4.1,3.2 l 3.1,-0.1 0.2,4.6 0.1,1.4 -0.1,2.3 -0.1,1.4 0.1,2.3 -0.1,1.4 0.1,2.3 -0.1,1.4 0,4.6 H 70.2 v 17.1 l 1.9,0.1 6.9,0 c 6.3,-0.1 12.7,0.5 19.4,2.8 -0.5,5.7 -1.3,11.4 -1.9,17 -0.2,2.2 -1.6,-0.7 -6.9,1.9 l -1.3,-1.1 1.4,-2 -0.3,-0.8 -14.7,4.1 17.3,1.8 -0.1,0.9 -17.2,1.4 0,0.5 0.5,0.5 37.6,1.8 0,0.5 -3.8,1 22.7,0.8 0,0.8 h -6 c 0.5,1.5 2.2,1.4 3.7,1.4 h 1.4 l 2.3,-0.1 1.4,0.1 6.6,0.6 -7.5,1.5 -0.5,0.5 9.8,0 -2.8,1.4 0.1,0.7 16.2,-0.8 2.3,-0.3 c 0.2,0 1,0.2 1,0.2 0.1,0 0.3,-0.3 0.4,-0.2 l 0.5,0.4 -9.3,1.9 17.1,2.5 0.1,0.5 -9.5,3 0.1,0.5 0.5,0.5 0.1,-0.5 36.1,1.7 0.1,0.6 -0.5,0.5 -24.6,4.3 0.3,0.3 104.6,0.3 1.4,0.1 2.3,-0.1 1.4,0.1 2.3,-0.1 1.4,0.1 2.3,-0.1 1.4,0.1 2.3,-0.1 1.4,0.1 2.3,-0.1 1.4,0.1 2.3,-0.1 1.4,0.1 2.3,-0.1 1.4,0.1 2.3,-0.1 1.4,0.1 2.3,-0.1 1.4,0.1 2.3,-0.1 1.4,0.1 2.3,-0.1 1.4,0.1 2.3,-0.1 1.4,0.1 2.3,-0.1 1.4,0.1 58.1,0.5 z m -176.2,-9.1 31.5,-2.4 1.4,0 7.5,-0.9 0,-0.7 -41.2,-3.1 0.1,-0.7 18.5,-2 0,-0.9 -9.3,-1.7 11.6,-1.1 0,-0.7 -31.1,-3.3 25.6,-3.1 -0.1,-0.7 -13.9,-1.1 h -0.5 c -2.3,0 -3.1,-0.3 -5.2,-0.2 -4.4,0.1 -2.8,-2.5 -5.4,-2.5 h -1.4 l -0.1,-2.3 -0.8,-10.6 v -0.5 c 0,-5.5 9.1,-3.5 11.7,-3.5 2.9,0 10.2,-0.2 19.8,-0.2 11.7,0 38.3,-1.4 39.3,0 -1.7,1.4 -7.1,3.7 -4.7,4.1 4.4,0.8 15.1,2.3 11.7,3.5 -3,1 -8.6,2.5 -9.1,3 0.7,1.1 3,1.6 4.1,2.2 2.5,1.5 3.4,0.5 3.5,0.7 0.4,0.3 -2,3.3 -4,4.8 l 6.6,2.9 -8.4,4.5 0.3,0.6 c 2.3,1.1 4.8,0.9 7.1,3.1 2.2,2.1 0.5,5 -2.2,5.2 -7.1,0.5 -16.4,0.2 -20.7,0.5 l -0.1,0.8 26.5,2 0.1,1.3 -5.6,1 2.3,4 -65.4,-2 z M 220,377.3 m 135.6,17.6 -0.5,-0.1 -2.3,0.1 h -1.4 c -3.9,0 -8.9,0 -11.1,3.2 l 0.9,0 44.1,1.8 -0.1,1 c -5.3,3.4 -37.6,3.9 -39.7,3.9 -0.6,0 -43.4,-0.5 -45.9,-2 l 30.1,-2 V 400 l -34.2,0.5 -1.4,-0.1 -2.3,0.1 -1.4,-0.1 -2.3,0.1 -1.4,0 -12,-0.9 v -1.4 l 0,-0.5 23.7,-0.9 -20.9,-2.3 0.1,-0.5 0.4,-3.7 -2.8,-0.5 c 0.1,-4.2 4.1,-3.4 6.1,-4.5 l -1.9,-0.8 -0.3,-0.4 8.2,-3.2 -6.2,-1.5 -0.1,-0.7 8,-3.9 -8.9,-2.7 0.2,-1.1 12.6,-3.5 0.2,-0.6 -11.8,-2.6 0.6,-0.1 14.3,-1.7 v -0.9 l -4.7,-1.1 0.1,-0.5 32.5,0 -4.8,-2.5 c 17.1,0 36.6,-0.2 52.1,-0.2 5.9,0 11.6,0.1 17.6,0 5.5,-0.1 7,9.7 9.5,14.6 l -32,3.2 0.1,0.6 29.1,3.2 -51.4,5.4 -0.1,1.2 17.2,2.9 -30.5,2.5 -0.1,0.5 29.2,2.6 c -1.1,0.4 -2.8,0.9 -4.4,0.9 z m -27.3,-3.9 0.5,0.4 1.5,0.3 0.2,-0.8 -2.2,0.1 z m 37.6,-16 c -0.3,-0.3 -1,1.4 -0.3,0.8 0,0 0.2,-0.4 0.2,-0.4 0.1,0 0.2,-0.3 0.1,-0.4 z m -88.5,11.6 M 114.6,351.4 m -5.6,0 m 407.9,-5.5 c -0.1,0.1 0.2,0.2 0.2,0.2 0,0 -0.1,-0.3 -0.2,-0.2 z m -7,1.8 c -1.2,-0.6 0.4,-0.5 -1.4,-0.5 -1.8,0 -3.3,0.2 -4.6,-1.8 l 2.3,-0.2 3.7,0.4 0,2.1 z m -23,-1.8 c 0.8,-1 -0.5,-0.7 1.8,-0.9 l 1.9,0.1 3.7,0.4 v 1.4 h -5.1 c -1.4,-0.1 -0.3,-0.5 -2.3,-1 z M 89.8,339.4 c -0.1,0 -1.2,-0.8 -1.2,-1 l 0.1,-0.4 0.9,0 c 0.7,0.2 0.3,-0.1 0.9,0 l 1.2,0 c 0.9,0.7 0.6,0.7 1.1,1.4 l -3,0 z m 109.3,-0.9 c -1.3,1 -0.2,0.8 -2.1,0.9 l 0.4,-3.7 1.4,0.5 0.3,0.9 0,1.4 z m -94.2,-1.4 c 0.2,-0.5 1.7,-0.1 3.2,0 L 110,337 c 0.5,0 1.3,-0.6 1.4,-0.1 0.1,0.5 -0.9,0.8 -1.3,0.9 l -2.8,1 -0.9,0.7 c -0.3,-0.2 -0.2,-0.3 -0.7,-0.7 -0.9,0 -2.2,0.2 -1.8,-0.2 l 0.7,-0.7 0.3,-0.8 z m 20.8,0.5 c -1.2,0 -1.4,-0.7 -1.8,-1.3 l 3.2,-0.5 0.5,0 c 0.9,0 0.8,0.1 1.4,0.5 -0.5,0.7 -0.6,1.4 -1.9,1.4 h -1.4 z m 316,-0.9 c -0.8,-0.6 -1,-0.1 -1,-1.4 0,-0.6 0.5,-0.7 0.9,-0.9 0.4,1.8 1.3,2.2 2.3,3.7 l -2.8,-0.5 0.6,-0.9 z m -297.5,-0.1 c -2.3,-4.8 3.1,-12.2 5.5,-13.9 2.7,2 2.7,3.7 0,5.6 v -1.9 c -2.8,0.7 -3.6,2.4 -5.1,4.6 l 1.5,2.1 0.4,-0.3 0.5,0.5 -2.8,3.3 z m 291.4,-7.4 c 1,-1.9 -1.1,-0.7 0.9,-1.4 l 1.2,2 0.2,2.2 -2.3,-2.8 z m -234.1,-2.3 1.1,-1 0.5,-1.4 c 1.3,2.5 -1.8,6.3 -2,9.3 l -1.7,-1.1 1.4,-3.3 -0.2,-0.7 1.4,-1 -0.5,-0.8 z m 228.7,-4.6 h 1.2 c 0.2,2 -0.1,0.8 0.9,2.3 l -0.5,0.4 -1.6,-0.4 v -2.3 z m -272,-13.1 0.4,2.5 1.8,0.6 0.4,0.2 -6.5,9.9 -2.8,-2.7 c 5.3,-0.5 5,-2.4 6.5,-4.6 l -3.1,0.3 3.3,-6.2 z m 49.9,6.6 0.5,0.4 c -0.8,1.3 0.4,2.4 -1.5,3.8 l 0.4,1.9 -1,0.8 -1.3,-0.1 v -1.2 l 0.2,-1.7 2.7,-3.9 z m 215.5,-0.9 c 1.4,0.9 3.1,2 3.2,4.2 -1.4,-1 -3,-2.1 -3.2,-4.2 z m -212.5,-6.9 2,0.6 -0.2,2.2 -1.9,2 0.3,0.7 -1.1,0.9 -0.4,-0.3 c 0.9,-1.8 0.1,1.1 0.1,-1.5 v -0.5 l 0.2,-1.8 1,-0.9 V 308 z m 199.4,-5.7 c 1,0.6 1,-0.1 2.6,1.2 1.4,1.1 1.2,1.6 2.5,2.1 l -0.5,0.9 2.3,2 -0.4,0.8 0.9,0.5 -0.4,0.5 -7.6,-7.6 0.6,-0.4 z m -195.6,1 c 1.5,1.1 0.2,1.1 0.9,2.8 l -1,0.8 -0.4,-0.3 0.6,-0.5 -1,-0.5 0.9,-2.3 z m -52.7,7 c -2.1,-3.2 -3.3,-3.3 -0.6,-6.1 1.3,-1.3 3.3,-5.4 5.2,-5.4 0.3,0 1.7,1.5 2.3,1.9 l -2.1,2.6 c -2.6,-0.6 0.1,0.1 -1.2,-2.6 l -4.3,4.1 2.1,1.9 0.9,-0.7 0.4,0.3 -2.7,4 z m 55.1,-11.1 c 1.5,-2.2 0.1,-2.4 2.8,-4.2 -0.1,1.4 -0.5,2.3 -0.9,3.3 -0.2,0.5 -1.3,2.4 -1.5,2.2 l -0.5,-0.4 0.1,-0.9 z m 185.1,-6.5 c 3.1,0.3 0.3,0.9 3.1,2.8 l -0.5,0.9 0.9,0.5 -0.4,0.5 -3.2,-3.3 v -1.4 z M 220,292.2 c 1.6,-2.3 1,-4.8 4.2,-5.1 -0.7,1.6 0.5,1.6 -1.4,2.3 l 0.5,0.9 -1.4,0 0.5,0.9 -1.4,0 0.5,0.9 -1.5,0.1 z m -49.3,-1.8 2.8,2.6 -3.3,-0.8 0.5,-1.8 z m 225.4,-3.1 2,0.8 -0.5,0.9 1.1,0.9 1.8,-0.3 -0.7,2 -3.7,-4.3 z m -220.7,-3.6 2,2.1 -1.7,3.1 c -1,-0.6 -0.8,-1.4 -1.9,-1.4 -0.7,-0.1 -0.4,-0.2 -0.9,0.3 -0.1,0.1 -0.2,0.7 -0.4,0.5 l -0.3,-0.3 3.2,-4.3 z m 54.2,-7.8 0.5,0.7 -0.8,0.9 0.4,0.8 -1.4,1 0.4,0.8 c -1.7,1.1 -0.7,0.4 -1.5,1.8 -0.3,0.5 -1.8,1.4 -1.8,1.4 l -0.5,-0.4 0.8,-2.2 3.9,-4.8 z M 393,283 c 0,0.1 -0.5,0.9 -0.5,0.9 -1.4,-1 -2.6,-1.4 -2.8,-3.7 1.7,0.1 3.3,1.2 3.3,2.8 z m -215,-3.3 c 0,-0.3 1,-1.3 1.4,-1.8 l 1.4,0.2 0.8,0.9 -0.1,1.3 -2.1,1.9 c -0.8,-2.2 -1.4,-0.5 -1.4,-2.5 z m 204.7,-8.9 c -3.2,-0.1 -4.3,-2.2 -6.3,-3.5 l -0.1,-1 0.5,-0.5 1.5,0 4.4,5 z m -195,-1.7 c 0.2,-1.8 0.3,-1.6 0.2,-2.7 0,-1.4 -0.9,-1 0.7,-1.5 l 0.7,1.5 -0.6,0.9 0.4,0.8 -1.4,1 z m 186.8,-6 1,0.3 -1.5,0.2 -1.3,-0.9 0.5,-1.8 1.7,1.4 -0.4,0.8 z m -180.7,-6.8 c 0.6,0.4 1.2,0.5 1.2,1.7 v 0.5 c 0,1.1 -2.4,2.2 -3.2,2.8 l 1,1.3 -1.4,1 -1.3,-1.6 0.7,-1.5 3,-4.2 z m 178.1,2.1 c -2.3,1 -4.6,-2.5 -6,-3.6 l 0.5,-1.8 5.5,5.4 z m -174.8,-7.5 1.3,1.5 -0.3,1.9 -1.7,0.4 -1,-0.9 1.7,-2.9 z m 5.3,-7.8 0.2,1.5 1.3,1.3 -2.2,1.7 -1.3,0.4 -0.7,0 -0.6,-0.1 1.7,-2.6 -0.1,-0.7 1.7,-1.5 z m 2,-2.8 0.1,-1.3 3,-2.9 -0.4,-1.4 0.5,-0.5 0.9,1.1 -0.4,0.8 1.5,1.3 -1.4,1.1 0.4,0.8 -2,1.8 -1.3,-0.1 -0.9,-0.7 z"
         id="path3101"
         inkscape:connector-curvature="0"
         style="fill-rule:evenodd" /><polygon
         clip-rule="evenodd"
         points="184.9,273.7 185.4,272.9 185.3,271.5 184.5,270.5 183.9,270.6 183.9,273.7 "
         id="polygon3103"
         style="fill-rule:evenodd" /><polygon
         clip-rule="evenodd"
         points="233.2,272.7 235.3,268.5 235.2,266.8 234,268.6 232.1,272 232.2,273.6 "
         id="polygon3105"
         style="fill-rule:evenodd" /></g><g
       id="g3107"><path
         d="m 336.7,158.2 c 0,26.4 -21.4,47.7 -47.7,47.7 -26.4,0 -47.7,-21.4 -47.7,-47.7 0,-26.4 21.4,-47.7 47.7,-47.7 26.3,-0.1 47.7,21.3 47.7,47.7 z"
         id="path3109"
         inkscape:connector-curvature="0"
         style="fill:#010101" /><path
         d="m 309.8,128.1 c -4.8,0.2 -9.1,2.8 -12.2,6.5 -3.5,4.1 -5.8,8.9 -7.5,13.8 -3,-2.5 -5.3,-5.6 -10.1,-7 -3.7,-1.1 -7.6,-0.6 -11.2,2 -1.7,1.3 -2.9,3.2 -3.4,5 -1.4,4.7 1.5,8.8 2.9,10.3 l 2.9,3.1 c 0.6,0.6 2.1,2.2 1.3,4.5 -0.8,2.5 -3.8,4.1 -6.9,3.2 -1.4,-0.4 -3.4,-1.5 -2.9,-2.9 0.2,-0.6 0.6,-1 0.8,-1.5 0.2,-0.4 0.3,-0.8 0.4,-1 0.6,-1.8 -0.2,-4.3 -2.2,-4.9 -1.8,-0.6 -3.7,-0.1 -4.5,2.3 -0.8,2.7 0.5,7.6 7.4,9.7 8.1,2.5 15,-1.9 16,-7.7 0.6,-3.6 -1,-6.3 -4,-9.7 l -2.4,-2.7 c -1.5,-1.5 -2,-4 -0.5,-5.9 1.3,-1.6 3.1,-2.3 6.1,-1.5 4.4,1.2 6.3,4.2 9.6,6.7 -1.3,4.4 -2.2,8.8 -3,12.8 l -0.5,3 c -2.3,12.2 -4.1,18.9 -8.7,22.8 -0.9,0.7 -2.3,1.7 -4.3,1.7 -1.1,0 -1.4,-0.7 -1.4,-1 0,-0.7 0.6,-1.1 1,-1.4 0.6,-0.3 1.6,-0.9 1.5,-2.7 -0.1,-2.1 -1.8,-3.9 -4.4,-3.9 -1.9,0.1 -4.8,1.8 -4.7,5.1 0.1,3.4 3.3,5.9 8,5.7 2.5,-0.1 8.2,-1.1 13.8,-7.7 6.5,-7.6 8.3,-16.3 9.7,-22.7 l 1.5,-8.4 c 0.8,0.1 1.8,0.2 2.7,0.2 8.1,0.2 12.1,-4 12.2,-7.1 0,-1.8 -1.2,-3.7 -3,-3.6 -1.3,0 -2.8,0.9 -3.2,2.6 -0.4,1.7 2.6,3.2 0.3,4.7 -1.6,1.1 -4.6,1.8 -8.7,1.2 l 0.7,-4.1 c 1.5,-7.9 3.4,-17.5 10.6,-17.8 0.5,0 2.4,0 2.5,1.3 0,0.4 -0.1,0.5 -0.6,1.5 -0.5,0.8 -0.7,1.4 -0.7,2.1 0.1,2 1.6,3.3 3.8,3.2 3,-0.1 3.8,-3 3.8,-4.5 0,-3.3 -3.6,-5.5 -8.5,-5.3 z"
         id="path3111"
         inkscape:connector-curvature="0"
         style="fill:#ffffff" /></g></g></svg>